<mxfile host="Electron" agent="Mozilla/5.0 (Windows NT 10.0; Win64; x64) AppleWebKit/537.36 (KHTML, like Gecko) draw.io/27.0.9 Chrome/134.0.6998.205 Electron/35.4.0 Safari/537.36" version="27.0.9">
  <diagram name="Page-1" id="DBURFXKT9Nn165P1PjoX">
    <mxGraphModel dx="1042" dy="626" grid="1" gridSize="10" guides="1" tooltips="1" connect="1" arrows="1" fold="1" page="1" pageScale="1" pageWidth="850" pageHeight="1100" math="0" shadow="0">
      <root>
        <mxCell id="0" />
        <mxCell id="1" parent="0" />
        <mxCell id="tVYNXHtNFq-kJzAmVr61-1" value="&lt;b&gt;&lt;font style=&quot;font-size: 23px;&quot;&gt;Data Flow Daigran&lt;/font&gt;&lt;/b&gt;" style="text;html=1;align=left;verticalAlign=middle;whiteSpace=wrap;rounded=0;" parent="1" vertex="1">
          <mxGeometry x="10" y="20" width="210" height="30" as="geometry" />
        </mxCell>
        <mxCell id="tVYNXHtNFq-kJzAmVr61-3" value="" style="rounded=0;whiteSpace=wrap;html=1;fillColor=none;dashed=1;strokeColor=#4D4D4D;" parent="1" vertex="1">
          <mxGeometry x="70" y="150" width="150" height="370" as="geometry" />
        </mxCell>
        <mxCell id="tVYNXHtNFq-kJzAmVr61-4" value="&lt;font style=&quot;font-size: 24px;&quot;&gt;Sources&lt;/font&gt;" style="rounded=0;whiteSpace=wrap;html=1;fillColor=default;strokeColor=none;gradientColor=none;" parent="1" vertex="1">
          <mxGeometry x="85" y="130" width="120" height="40" as="geometry" />
        </mxCell>
        <mxCell id="tVYNXHtNFq-kJzAmVr61-9" value="Bronze Layer" style="rounded=1;whiteSpace=wrap;html=1;fillColor=#ffe6cc;strokeColor=#d79b00;fontSize=17;" parent="1" vertex="1">
          <mxGeometry x="290" y="150" width="150" height="30" as="geometry" />
        </mxCell>
        <mxCell id="tVYNXHtNFq-kJzAmVr61-10" value="" style="rounded=1;whiteSpace=wrap;html=1;fontSize=17;fillColor=none;strokeColor=#d79b00;" parent="1" vertex="1">
          <mxGeometry x="290" y="190" width="150" height="330" as="geometry" />
        </mxCell>
        <mxCell id="tVYNXHtNFq-kJzAmVr61-11" value="" style="rounded=1;whiteSpace=wrap;html=1;fontSize=17;fillColor=none;strokeColor=#d6b656;" parent="1" vertex="1">
          <mxGeometry x="770" y="190" width="150" height="330" as="geometry" />
        </mxCell>
        <mxCell id="tVYNXHtNFq-kJzAmVr61-12" value="Gold Layer" style="rounded=1;whiteSpace=wrap;html=1;fillColor=#fff2cc;strokeColor=#d6b656;fontSize=17;" parent="1" vertex="1">
          <mxGeometry x="770" y="150" width="150" height="30" as="geometry" />
        </mxCell>
        <mxCell id="tVYNXHtNFq-kJzAmVr61-13" value="" style="rounded=1;whiteSpace=wrap;html=1;fontSize=17;fillColor=none;strokeColor=#666666;fontColor=#333333;" parent="1" vertex="1">
          <mxGeometry x="530" y="190" width="150" height="330" as="geometry" />
        </mxCell>
        <mxCell id="tVYNXHtNFq-kJzAmVr61-14" value="Silver Layer" style="rounded=1;whiteSpace=wrap;html=1;fillColor=#f5f5f5;strokeColor=#666666;fontSize=17;fontColor=#333333;" parent="1" vertex="1">
          <mxGeometry x="530" y="150" width="150" height="30" as="geometry" />
        </mxCell>
        <mxCell id="zQ20tTBjOCP1LKAElcAF-8" style="edgeStyle=orthogonalEdgeStyle;rounded=0;orthogonalLoop=1;jettySize=auto;html=1;entryX=0;entryY=0.5;entryDx=0;entryDy=0;exitX=1;exitY=0.535;exitDx=0;exitDy=0;exitPerimeter=0;" parent="1" source="zQ20tTBjOCP1LKAElcAF-2" target="zQ20tTBjOCP1LKAElcAF-4" edge="1">
          <mxGeometry relative="1" as="geometry">
            <mxPoint x="170" y="260" as="sourcePoint" />
          </mxGeometry>
        </mxCell>
        <mxCell id="zQ20tTBjOCP1LKAElcAF-9" style="edgeStyle=orthogonalEdgeStyle;rounded=0;orthogonalLoop=1;jettySize=auto;html=1;entryX=0;entryY=0.5;entryDx=0;entryDy=0;" parent="1" source="zQ20tTBjOCP1LKAElcAF-2" target="zQ20tTBjOCP1LKAElcAF-6" edge="1">
          <mxGeometry relative="1" as="geometry" />
        </mxCell>
        <mxCell id="zQ20tTBjOCP1LKAElcAF-10" style="edgeStyle=orthogonalEdgeStyle;rounded=0;orthogonalLoop=1;jettySize=auto;html=1;entryX=0;entryY=0.5;entryDx=0;entryDy=0;" parent="1" source="zQ20tTBjOCP1LKAElcAF-2" target="zQ20tTBjOCP1LKAElcAF-7" edge="1">
          <mxGeometry relative="1" as="geometry" />
        </mxCell>
        <mxCell id="zQ20tTBjOCP1LKAElcAF-2" value="CRM" style="image;aspect=fixed;html=1;points=[];align=center;fontSize=12;image=img/lib/azure2/general/Folder_Blank.svg;fontStyle=1" parent="1" vertex="1">
          <mxGeometry x="120.36" y="264.86" width="49.64" height="40.28" as="geometry" />
        </mxCell>
        <mxCell id="zQ20tTBjOCP1LKAElcAF-14" style="edgeStyle=orthogonalEdgeStyle;rounded=0;orthogonalLoop=1;jettySize=auto;html=1;entryX=0;entryY=0.5;entryDx=0;entryDy=0;" parent="1" source="zQ20tTBjOCP1LKAElcAF-3" target="zQ20tTBjOCP1LKAElcAF-13" edge="1">
          <mxGeometry relative="1" as="geometry" />
        </mxCell>
        <mxCell id="zQ20tTBjOCP1LKAElcAF-15" style="edgeStyle=orthogonalEdgeStyle;rounded=0;orthogonalLoop=1;jettySize=auto;html=1;entryX=0;entryY=0.5;entryDx=0;entryDy=0;" parent="1" source="zQ20tTBjOCP1LKAElcAF-3" target="zQ20tTBjOCP1LKAElcAF-12" edge="1">
          <mxGeometry relative="1" as="geometry" />
        </mxCell>
        <mxCell id="zQ20tTBjOCP1LKAElcAF-16" style="edgeStyle=orthogonalEdgeStyle;rounded=0;orthogonalLoop=1;jettySize=auto;html=1;entryX=0;entryY=0.5;entryDx=0;entryDy=0;" parent="1" source="zQ20tTBjOCP1LKAElcAF-3" target="zQ20tTBjOCP1LKAElcAF-11" edge="1">
          <mxGeometry relative="1" as="geometry" />
        </mxCell>
        <mxCell id="zQ20tTBjOCP1LKAElcAF-3" value="ERP" style="image;aspect=fixed;html=1;points=[];align=center;fontSize=12;image=img/lib/azure2/general/Folder_Blank.svg;fontStyle=1" parent="1" vertex="1">
          <mxGeometry x="120.36" y="380" width="49.29" height="40" as="geometry" />
        </mxCell>
        <mxCell id="cJewx3OlcjGB0-qhc8op-7" style="edgeStyle=orthogonalEdgeStyle;rounded=0;orthogonalLoop=1;jettySize=auto;html=1;entryX=0;entryY=0.5;entryDx=0;entryDy=0;" parent="1" source="zQ20tTBjOCP1LKAElcAF-4" target="cJewx3OlcjGB0-qhc8op-1" edge="1">
          <mxGeometry relative="1" as="geometry" />
        </mxCell>
        <mxCell id="zQ20tTBjOCP1LKAElcAF-4" value="&lt;font&gt;crm_sales_details&lt;/font&gt;" style="rounded=1;whiteSpace=wrap;html=1;fillColor=#ffe6cc;strokeColor=#d79b00;fontSize=13;" parent="1" vertex="1">
          <mxGeometry x="295" y="230" width="140" height="30" as="geometry" />
        </mxCell>
        <mxCell id="cJewx3OlcjGB0-qhc8op-8" style="edgeStyle=orthogonalEdgeStyle;rounded=0;orthogonalLoop=1;jettySize=auto;html=1;entryX=0;entryY=0.5;entryDx=0;entryDy=0;" parent="1" source="zQ20tTBjOCP1LKAElcAF-6" target="cJewx3OlcjGB0-qhc8op-2" edge="1">
          <mxGeometry relative="1" as="geometry" />
        </mxCell>
        <mxCell id="zQ20tTBjOCP1LKAElcAF-6" value="&lt;font&gt;crm_cust_info&lt;/font&gt;" style="rounded=1;whiteSpace=wrap;html=1;fillColor=#ffe6cc;strokeColor=#d79b00;fontSize=12;" parent="1" vertex="1">
          <mxGeometry x="295" y="270" width="140" height="30" as="geometry" />
        </mxCell>
        <mxCell id="cJewx3OlcjGB0-qhc8op-9" style="edgeStyle=orthogonalEdgeStyle;rounded=0;orthogonalLoop=1;jettySize=auto;html=1;entryX=0;entryY=0.5;entryDx=0;entryDy=0;" parent="1" source="zQ20tTBjOCP1LKAElcAF-7" target="cJewx3OlcjGB0-qhc8op-3" edge="1">
          <mxGeometry relative="1" as="geometry" />
        </mxCell>
        <mxCell id="zQ20tTBjOCP1LKAElcAF-7" value="&lt;font&gt;crm_prd_info&lt;/font&gt;" style="rounded=1;whiteSpace=wrap;html=1;fillColor=#ffe6cc;strokeColor=#d79b00;fontSize=12;" parent="1" vertex="1">
          <mxGeometry x="295" y="310" width="140" height="30" as="geometry" />
        </mxCell>
        <mxCell id="cJewx3OlcjGB0-qhc8op-12" style="edgeStyle=orthogonalEdgeStyle;rounded=0;orthogonalLoop=1;jettySize=auto;html=1;exitX=1;exitY=0.5;exitDx=0;exitDy=0;entryX=0;entryY=0.5;entryDx=0;entryDy=0;" parent="1" source="zQ20tTBjOCP1LKAElcAF-11" target="cJewx3OlcjGB0-qhc8op-6" edge="1">
          <mxGeometry relative="1" as="geometry" />
        </mxCell>
        <mxCell id="zQ20tTBjOCP1LKAElcAF-11" value="&lt;font&gt;erp_px_cat_g1v2&lt;/font&gt;" style="rounded=1;whiteSpace=wrap;html=1;fillColor=#ffe6cc;strokeColor=#d79b00;fontSize=12;" parent="1" vertex="1">
          <mxGeometry x="295" y="440" width="140" height="30" as="geometry" />
        </mxCell>
        <mxCell id="cJewx3OlcjGB0-qhc8op-11" style="edgeStyle=orthogonalEdgeStyle;rounded=0;orthogonalLoop=1;jettySize=auto;html=1;entryX=0;entryY=0.5;entryDx=0;entryDy=0;" parent="1" source="zQ20tTBjOCP1LKAElcAF-12" target="cJewx3OlcjGB0-qhc8op-5" edge="1">
          <mxGeometry relative="1" as="geometry" />
        </mxCell>
        <mxCell id="zQ20tTBjOCP1LKAElcAF-12" value="&lt;font&gt;erp_loc_a101&lt;/font&gt;" style="rounded=1;whiteSpace=wrap;html=1;fillColor=#ffe6cc;strokeColor=#d79b00;fontSize=12;" parent="1" vertex="1">
          <mxGeometry x="295" y="400" width="140" height="30" as="geometry" />
        </mxCell>
        <mxCell id="cJewx3OlcjGB0-qhc8op-10" style="edgeStyle=orthogonalEdgeStyle;rounded=0;orthogonalLoop=1;jettySize=auto;html=1;entryX=0;entryY=0.5;entryDx=0;entryDy=0;" parent="1" source="zQ20tTBjOCP1LKAElcAF-13" target="cJewx3OlcjGB0-qhc8op-4" edge="1">
          <mxGeometry relative="1" as="geometry" />
        </mxCell>
        <mxCell id="zQ20tTBjOCP1LKAElcAF-13" value="&lt;font&gt;erp_cust_az12&lt;/font&gt;" style="rounded=1;whiteSpace=wrap;html=1;fillColor=#ffe6cc;strokeColor=#d79b00;fontSize=13;" parent="1" vertex="1">
          <mxGeometry x="295" y="360" width="140" height="30" as="geometry" />
        </mxCell>
        <mxCell id="EjSXLOwCmbATOBKsldv1-5" style="edgeStyle=orthogonalEdgeStyle;rounded=0;orthogonalLoop=1;jettySize=auto;html=1;entryX=0;entryY=0.5;entryDx=0;entryDy=0;" edge="1" parent="1" source="cJewx3OlcjGB0-qhc8op-1" target="EjSXLOwCmbATOBKsldv1-1">
          <mxGeometry relative="1" as="geometry" />
        </mxCell>
        <mxCell id="cJewx3OlcjGB0-qhc8op-1" value="&lt;font&gt;crm_sales_details&lt;/font&gt;" style="rounded=1;whiteSpace=wrap;html=1;fillColor=#f5f5f5;strokeColor=#666666;fontSize=13;fontColor=#333333;" parent="1" vertex="1">
          <mxGeometry x="535" y="230" width="140" height="30" as="geometry" />
        </mxCell>
        <mxCell id="EjSXLOwCmbATOBKsldv1-6" style="edgeStyle=orthogonalEdgeStyle;rounded=0;orthogonalLoop=1;jettySize=auto;html=1;entryX=0;entryY=0.5;entryDx=0;entryDy=0;jumpStyle=gap;jumpSize=11;" edge="1" parent="1" source="cJewx3OlcjGB0-qhc8op-2" target="EjSXLOwCmbATOBKsldv1-2">
          <mxGeometry relative="1" as="geometry" />
        </mxCell>
        <mxCell id="cJewx3OlcjGB0-qhc8op-2" value="&lt;font&gt;crm_cust_info&lt;/font&gt;" style="rounded=1;whiteSpace=wrap;html=1;fillColor=#f5f5f5;strokeColor=#666666;fontSize=12;fontColor=#333333;" parent="1" vertex="1">
          <mxGeometry x="535" y="270" width="140" height="30" as="geometry" />
        </mxCell>
        <mxCell id="EjSXLOwCmbATOBKsldv1-10" style="edgeStyle=orthogonalEdgeStyle;rounded=0;orthogonalLoop=1;jettySize=auto;html=1;entryX=0;entryY=0.5;entryDx=0;entryDy=0;jumpStyle=gap;jumpSize=11;" edge="1" parent="1" source="cJewx3OlcjGB0-qhc8op-3" target="EjSXLOwCmbATOBKsldv1-3">
          <mxGeometry relative="1" as="geometry" />
        </mxCell>
        <mxCell id="cJewx3OlcjGB0-qhc8op-3" value="&lt;font&gt;crm_prd_info&lt;/font&gt;" style="rounded=1;whiteSpace=wrap;html=1;fillColor=#f5f5f5;strokeColor=#666666;fontSize=12;fontColor=#333333;" parent="1" vertex="1">
          <mxGeometry x="535" y="310" width="140" height="30" as="geometry" />
        </mxCell>
        <mxCell id="EjSXLOwCmbATOBKsldv1-7" style="edgeStyle=orthogonalEdgeStyle;rounded=0;orthogonalLoop=1;jettySize=auto;html=1;entryX=0;entryY=0.5;entryDx=0;entryDy=0;jumpStyle=gap;jumpSize=11;" edge="1" parent="1" source="cJewx3OlcjGB0-qhc8op-4" target="EjSXLOwCmbATOBKsldv1-2">
          <mxGeometry relative="1" as="geometry" />
        </mxCell>
        <mxCell id="cJewx3OlcjGB0-qhc8op-4" value="&lt;font&gt;erp_cust_az12&lt;/font&gt;" style="rounded=1;whiteSpace=wrap;html=1;fillColor=#f5f5f5;strokeColor=#666666;fontSize=13;fontColor=#333333;" parent="1" vertex="1">
          <mxGeometry x="535" y="360" width="140" height="30" as="geometry" />
        </mxCell>
        <mxCell id="EjSXLOwCmbATOBKsldv1-8" style="edgeStyle=orthogonalEdgeStyle;rounded=0;orthogonalLoop=1;jettySize=auto;html=1;entryX=0;entryY=0.5;entryDx=0;entryDy=0;jumpStyle=gap;jumpSize=11;" edge="1" parent="1" source="cJewx3OlcjGB0-qhc8op-5" target="EjSXLOwCmbATOBKsldv1-2">
          <mxGeometry relative="1" as="geometry" />
        </mxCell>
        <mxCell id="cJewx3OlcjGB0-qhc8op-5" value="&lt;font&gt;erp_loc_a101&lt;/font&gt;" style="rounded=1;whiteSpace=wrap;html=1;fillColor=#f5f5f5;strokeColor=#666666;fontSize=12;fontColor=#333333;" parent="1" vertex="1">
          <mxGeometry x="535" y="400" width="140" height="30" as="geometry" />
        </mxCell>
        <mxCell id="EjSXLOwCmbATOBKsldv1-11" style="edgeStyle=orthogonalEdgeStyle;rounded=0;orthogonalLoop=1;jettySize=auto;html=1;entryX=0;entryY=0.5;entryDx=0;entryDy=0;jumpStyle=gap;jumpSize=11;" edge="1" parent="1" source="cJewx3OlcjGB0-qhc8op-6" target="EjSXLOwCmbATOBKsldv1-3">
          <mxGeometry relative="1" as="geometry" />
        </mxCell>
        <mxCell id="cJewx3OlcjGB0-qhc8op-6" value="&lt;font&gt;erp_px_cat_g1v2&lt;/font&gt;" style="rounded=1;whiteSpace=wrap;html=1;fillColor=#f5f5f5;strokeColor=#666666;fontSize=12;fontColor=#333333;" parent="1" vertex="1">
          <mxGeometry x="535" y="440" width="140" height="30" as="geometry" />
        </mxCell>
        <mxCell id="EjSXLOwCmbATOBKsldv1-1" value="&lt;font&gt;fact_sales&lt;/font&gt;" style="rounded=1;whiteSpace=wrap;html=1;fillColor=#fff2cc;strokeColor=#d6b656;fontSize=13;" vertex="1" parent="1">
          <mxGeometry x="775" y="240" width="140" height="30" as="geometry" />
        </mxCell>
        <mxCell id="EjSXLOwCmbATOBKsldv1-2" value="&lt;font&gt;dim_customers&lt;/font&gt;" style="rounded=1;whiteSpace=wrap;html=1;fillColor=#fff2cc;strokeColor=#d6b656;fontSize=12;" vertex="1" parent="1">
          <mxGeometry x="775" y="330" width="140" height="30" as="geometry" />
        </mxCell>
        <mxCell id="EjSXLOwCmbATOBKsldv1-3" value="&lt;font&gt;dim_products&lt;/font&gt;" style="rounded=1;whiteSpace=wrap;html=1;fillColor=#fff2cc;strokeColor=#d6b656;fontSize=12;" vertex="1" parent="1">
          <mxGeometry x="775" y="370" width="140" height="30" as="geometry" />
        </mxCell>
      </root>
    </mxGraphModel>
  </diagram>
</mxfile>
